<?xml version="1.0" encoding="UTF-8" standalone="no"?><!DOCTYPE svg PUBLIC "-//W3C//DTD SVG 1.1//EN" "http://www.w3.org/Graphics/SVG/1.1/DTD/svg11.dtd"><svg width="100%" height="100%" viewBox="0 0 140 100" version="1.1" xmlns="http://www.w3.org/2000/svg" xmlns:xlink="http://www.w3.org/1999/xlink" xml:space="preserve" xmlns:serif="http://www.serif.com/" style="fill-rule:evenodd;clip-rule:evenodd;stroke-linejoin:round;stroke-miterlimit:2;"><rect id="Page-1" serif:id="Page 1" x="0" y="0" width="140" height="100" style="fill:none;"/><clipPath id="_clip1"><rect x="0" y="0" width="140" height="100"/></clipPath><g clip-path="url(#_clip1)"><g id="Layer-1" serif:id="Layer 1"><rect x="-0" y="-0" width="140" height="100" style="fill:none;"/><path d="M123.622,31.685c0,-10.65 -7.668,-18.034 -18.886,-18.034l-24.85,0l0,36.21l24.85,0c11.218,0 18.886,-7.527 18.886,-18.176m-0.71,66.171l-24.141,-37.63l-18.885,0l0,37.63l-11.786,0l0,-94.713l38.056,0c17.323,0 29.677,11.076 29.677,28.542c0,17.039 -11.644,26.411 -24.565,27.548l25.559,38.623l-13.915,0Z" style="fill:#005eab;fill-rule:nonzero;"/><rect x="24.505" y="3.144" width="55.38" height="46.631" style="fill:#00aeef;"/><rect x="24.505" y="60.352" width="55.38" height="37.504" style="fill:#00aeef;"/><rect x="3.35" y="3.144" width="10.578" height="94.713" style="fill:#00aeef;"/><rect x="68.099" y="3.144" width="11.786" height="94.713" style="fill:#002a5c;"/></g></g></svg>
